# xmcd CD database file
#
# Track frame offsets:
#	150
#	92048
#	131242
#	237575
#	252617
#	272071
#	288588
#	305804
#
# Disc length: 4333 seconds
#
# Revision: 0
# Processed by: cddbd v1.5.1PL0 Copyright (c) Steve Scherf et al.
# Submitted via: CDex 1.51
#
DISCID=8210eb08
DTITLE=Various Artist - Bravo Hit Mix No. 2
DYEAR=2005
DGENRE=Mix
TTITLE0=Bravo Hit Mix Part 1
TTITLE1=Yello - To the Sea
TTITLE2=Bravo Hit Mix Part 2
TTITLE3=Vertigo - Oxygene
TTITLE4=Pharao - Temple of Love
TTITLE5=Charly and Mental Theo - Party
TTITLE6=Tic Tac Toe - Warum
TTITLE7=Annie Lennox - Step by Step
EXTD=YEAR: 2005
EXTT0=
EXTT1=
EXTT2=
EXTT3=
EXTT4=
EXTT5=
EXTT6=
EXTT7=
PLAYORDER=
